<?xml version="1.0" standalone="no"?><!DOCTYPE svg PUBLIC "-//W3C//DTD SVG 1.1//EN" "http://www.w3.org/Graphics/SVG/1.1/DTD/svg11.dtd"><svg t="1677343777350" class="icon" viewBox="0 0 1024 1024" version="1.1" xmlns="http://www.w3.org/2000/svg" p-id="3395" xmlns:xlink="http://www.w3.org/1999/xlink" width="200" height="200"><path d="M656.589 549.827l173.2 216.473a45.158 45.158 0 0 1-63.489 63.488l-216.473-173.2a60.539 60.539 0 0 0-75.654 0L257.7 829.789a45.158 45.158 0 0 1-63.488-63.488l173.2-216.473a60.539 60.539 0 0 0 0-75.654L194.211 257.7a45.158 45.158 0 0 1 63.488-63.488l216.473 173.2a60.539 60.539 0 0 0 75.654 0l216.473-173.2a45.158 45.158 0 0 1 63.488 63.488l-173.2 216.473a60.539 60.539 0 0 0 0 75.654z" p-id="3396"></path></svg>